<svg width="71.640625" height="29.537109" viewBox="0 0 71.6406 29.5371" fill="none" xmlns="http://www.w3.org/2000/svg" xmlns:xlink="http://www.w3.org/1999/xlink">
	<desc>
			Created with Pixso.
	</desc>
	<defs/>
	<path id="Fill 5" d="M16.05 29.28C18.78 29.28 21.07 28.75 23.32 27.66L23.47 27.51L23.47 19.68L22.63 20.75C21.01 22.53 18.83 23.5 16.36 23.5C11.77 23.5 7.16 20.54 7.16 14.86C7.16 10.58 10.34 6.02 16.2 6.02C17.37 6.02 20.22 6.3 22.63 8.86L23.47 9.9L23.47 2.1L23.33 1.95C21.03 0.8 18.69 0.25 16.02 0.25C11.45 0.25 7.89 1.45 5.05 3.92C3.25 5.47 0.25 8.94 0.25 14.78C0.25 19.1 1.78 22.48 5.07 25.4C8.13 28.09 11.52 29.28 16.05 29.28Z" fill="#6B7B84" fill-opacity="1.000000" fill-rule="evenodd"/>
	<path id="Fill 5" d="M23.32 27.66L23.47 27.51L23.47 19.68L22.63 20.75C21.01 22.53 18.83 23.5 16.36 23.5C11.77 23.5 7.16 20.54 7.16 14.86C7.16 10.58 10.34 6.02 16.2 6.02C17.37 6.02 20.22 6.3 22.63 8.86L23.47 9.9L23.47 2.1L23.33 1.95C21.03 0.8 18.69 0.25 16.02 0.25C11.45 0.25 7.89 1.45 5.05 3.92C3.25 5.47 0.25 8.94 0.25 14.78C0.25 19.1 1.78 22.48 5.07 25.4C8.13 28.09 11.52 29.28 16.05 29.28C18.78 29.28 21.07 28.75 23.32 27.66Z" stroke="#80949F" stroke-opacity="1.000000" stroke-width="0.500000"/>
	<mask id="mask_0_2388" fill="white">
		<path id="Fill 6" d="M46.4036 16.6245C44.647 18.3804 42.1174 19.3125 38.8862 19.3125L35.9458 19.3125L35.9458 29.2871L29.2871 29.2871L29.2871 0.25L38.0415 0.25C41.3235 0.25 43.6499 0.727539 45.8303 2.63818C48.4905 5.00098 48.8872 8.26465 48.8872 9.93799C48.8872 11.502 48.5642 14.4683 46.4036 16.6245ZM35.8206 6.7832L37.1848 6.7832C38.4363 6.7832 39.8625 6.85156 40.9421 7.5874C41.4692 7.96387 42.3538 8.83594 42.3538 10.4189C42.3538 11.5889 41.8367 12.6382 40.9827 13.293C39.9434 14.0474 38.718 14.0444 37.7019 14.0425C37.6475 14.042 37.5935 14.042 37.5403 14.042L35.8206 14.042L35.8206 6.7832Z" clip-rule="evenodd" fill="" fill-opacity="1.000000" fill-rule="evenodd"/>
	</mask>
	<path id="Fill 6" d="M46.4036 16.6245C44.647 18.3804 42.1174 19.3125 38.8862 19.3125L35.9458 19.3125L35.9458 29.2871L29.2871 29.2871L29.2871 0.25L38.0415 0.25C41.3235 0.25 43.6499 0.727539 45.8303 2.63818C48.4905 5.00098 48.8872 8.26465 48.8872 9.93799C48.8872 11.502 48.5642 14.4683 46.4036 16.6245ZM35.8206 6.7832L37.1848 6.7832C38.4363 6.7832 39.8625 6.85156 40.9421 7.5874C41.4692 7.96387 42.3538 8.83594 42.3538 10.4189C42.3538 11.5889 41.8367 12.6382 40.9827 13.293C39.9434 14.0474 38.718 14.0444 37.7019 14.0425C37.6475 14.042 37.5935 14.042 37.5403 14.042L35.8206 14.042L35.8206 6.7832Z" clip-rule="evenodd" fill="#6B7B84" fill-opacity="1.000000" fill-rule="evenodd" mask="url(#mask_0_2388)"/>
	<path id="Fill 6" d="M46.5803 16.8013Q45.2153 18.166 43.2827 18.8623Q41.3391 19.5625 38.8862 19.5625L35.9458 19.5625L35.9458 19.3125L36.1958 19.3125L36.1958 29.5371L29.0371 29.5371L29.0371 0L38.0415 0Q39.3503 0 40.3625 0.105957Q41.4861 0.223145 42.4172 0.486816Q43.4077 0.767578 44.2744 1.23926Q45.1687 1.72607 45.9951 2.4502Q47.8059 4.05859 48.594 6.46924Q48.8953 7.39062 49.0312 8.39014Q49.1372 9.16699 49.1372 9.93799Q49.1372 11.6104 48.6956 13.1289Q48.0562 15.3286 46.5801 16.8013L46.5803 16.8013ZM46.2268 16.4473Q47.6118 15.0654 48.2156 12.9893Q48.6372 11.5391 48.6372 9.93799Q48.6372 9.20117 48.5359 8.45752Q48.4058 7.50293 48.1187 6.62451Q47.3728 4.34277 45.6655 2.82617Q44.8809 2.13867 44.0354 1.67871Q43.2178 1.2334 42.2808 0.968262Q41.3914 0.716309 40.3105 0.603027Q39.3242 0.5 38.0415 0.5L29.2871 0.5L29.2871 0.25L29.5371 0.25L29.5371 29.2871L29.2871 29.2871L29.2871 29.0371L35.9458 29.0371L35.9458 29.2871L35.6958 29.2871L35.6958 19.0625L38.8862 19.0625Q41.2517 19.0625 43.113 18.3916Q44.9407 17.7334 46.2268 16.4478L46.2268 16.4473ZM35.8206 6.5332L37.1848 6.5332Q37.7505 6.5332 38.1616 6.55566Q38.7129 6.58594 39.1694 6.66309Q40.3118 6.85498 41.083 7.38086Q41.678 7.80566 42.0581 8.41895Q42.6038 9.29932 42.6038 10.4189Q42.6038 11.3472 42.2139 12.1577Q41.8274 12.9604 41.1348 13.4912L41.1321 13.4932L41.1296 13.4951Q40.394 14.0288 39.3745 14.1978Q38.9851 14.2627 38.5073 14.2822Q38.2278 14.2935 37.7012 14.2925L37.5398 14.292L35.5706 14.292L35.5706 6.5332L35.8206 6.5332ZM35.8206 7.0332L35.8206 6.7832L36.0706 6.7832L36.0706 14.042L35.8206 14.042L35.8206 13.792L37.5405 13.792L37.7024 13.7925Q38.2183 13.7935 38.4868 13.7827Q38.9338 13.7642 39.2927 13.7046Q40.196 13.5552 40.8357 13.0903L40.9827 13.293L40.8306 13.0942Q41.4285 12.6362 41.7632 11.9409Q42.1038 11.2334 42.1038 10.4189Q42.1038 9.44141 41.6331 8.68262Q41.3059 8.1543 40.8013 7.79395Q40.1206 7.33008 39.0864 7.15576Q38.3577 7.0332 37.1848 7.0332L35.8206 7.0332Z" fill="#80949F" fill-opacity="1.000000" fill-rule="nonzero"/>
	<path id="Fill 7" d="M68.86 13.96C67.41 12.68 65.39 11.93 63.1 11.16C61.46 10.59 60.56 10.28 59.96 9.73C59.49 9.33 59.28 8.89 59.28 8.32C59.28 7.05 60.13 5.7 62.55 5.7C64.18 5.7 65.56 6.4 66.62 7.78L67.05 8.33L70.56 3.86L70.24 3.53C68.09 1.38 65.26 0.25 62.05 0.25C55.57 0.25 52.67 4.46 52.67 8.64C52.67 10.88 53.47 12.69 55.04 14.01C56.45 15.21 58.16 15.89 59.81 16.44L60 16.5C61.46 16.99 62.97 17.49 63.87 18.29C64.5 18.87 64.78 19.5 64.78 20.33C64.78 22.23 63.28 23.5 61.06 23.5C59.3 23.5 56.98 22.64 55.75 20.22L55.43 19.58L51.06 23.63L51.32 24C52.71 25.97 55.86 29.28 61.26 29.28C67.22 29.28 71.39 25.45 71.39 19.96C71.39 16.83 70.01 14.96 68.86 13.96Z" fill="#6B7B84" fill-opacity="1.000000" fill-rule="evenodd"/>
	<path id="Fill 7" d="M63.1 11.16C61.46 10.59 60.56 10.28 59.96 9.73C59.49 9.33 59.28 8.89 59.28 8.32C59.28 7.05 60.13 5.7 62.55 5.7C64.18 5.7 65.56 6.4 66.62 7.78L67.05 8.33L70.56 3.86L70.24 3.53C68.09 1.38 65.26 0.25 62.05 0.25C55.57 0.25 52.67 4.46 52.67 8.64C52.67 10.88 53.47 12.69 55.04 14.01C56.45 15.21 58.16 15.89 59.81 16.44L60 16.5C61.46 16.99 62.97 17.49 63.87 18.29C64.5 18.87 64.78 19.5 64.78 20.33C64.78 22.23 63.28 23.5 61.06 23.5C59.3 23.5 56.98 22.64 55.75 20.22L55.43 19.58L51.06 23.63L51.32 24C52.71 25.97 55.86 29.28 61.26 29.28C67.22 29.28 71.39 25.45 71.39 19.96C71.39 16.83 70.01 14.96 68.86 13.96C67.41 12.68 65.39 11.93 63.1 11.16Z" stroke="#80949F" stroke-opacity="1.000000" stroke-width="0.500000"/>
</svg>
