<svg width="17.963623" height="17.963379" viewBox="0 0 17.9636 17.9634" fill="none" xmlns="http://www.w3.org/2000/svg" xmlns:xlink="http://www.w3.org/1999/xlink">
	<desc>
			Created with Pixso.
	</desc>
	<defs/>
	<path id="icon" d="M1.76 12.25L4.3 11.96C4.9 11.89 5.51 12.1 5.93 12.52L7.78 14.37C10.6 12.93 12.92 10.62 14.36 7.77L12.52 5.93C12.08 5.5 11.87 4.89 11.95 4.29L12.24 1.77C12.35 0.75 13.21 0 14.23 0L15.96 0C17.08 0 18.03 0.93 17.95 2.06C17.42 10.6 10.59 17.43 2.07 17.95C0.93 18.02 0 17.08 0 15.96L0 14.23C-0.02 13.22 0.75 12.37 1.76 12.25Z" fill="#FFFFFF" fill-opacity="1.000000" fill-rule="evenodd"/>
</svg>
